<?xml version="1.0" encoding="iso-8859-1"?>
<!-- Generator: Adobe Illustrator 19.0.0, SVG Export Plug-In . SVG Version: 6.00 Build 0)  -->
<svg xmlns="http://www.w3.org/2000/svg" xmlns:xlink="http://www.w3.org/1999/xlink" version="1.1" id="Layer_1" x="0px" y="0px" viewBox="0 0 512.001 512.001" style="enable-background:new 0 0 512.001 512.001;" xml:space="preserve">
<path style="fill:#C5C9D6;" d="M485.122,338.097c-15.518,0-445.413,0-465.13,0c-6.834,0-12.372,5.539-12.372,12.372  s5.539,12.373,12.372,12.373c10.855,0,454.127,0,465.13,0c6.832,0,12.372-5.54,12.372-12.373  C497.494,343.637,491.954,338.097,485.122,338.097z"/>
<path style="fill:#A9ADBF;" d="M485.122,350.47c-18.048,0-448.342,0-465.13,0c-4.576,0-8.564-2.492-10.703-6.187  c-4.775,8.241,1.197,18.56,10.703,18.56c10.855,0,454.127,0,465.13,0c9.515,0,15.473-10.327,10.703-18.56  C493.684,347.978,489.698,350.47,485.122,350.47z"/>
<path style="fill:#FF8C01;" d="M476.703,254.776v57.887c15.043-1.086,26.911-13.626,26.911-28.943  C503.616,268.401,491.747,255.862,476.703,254.776z"/>
<path style="fill:#F45C0F;" d="M476.703,289.156v23.506c15.043-1.086,26.911-13.626,26.911-28.943c0-4.185-0.892-8.16-2.486-11.754  C496.888,281.524,487.637,288.367,476.703,289.156z"/>
<path style="fill:#FC5151;" d="M322.777,101.826c-68.164,0-126.04,42.702-146.827,102.057l-0.004-0.001  c-0.918,3.109-4.238,6.148-9.392,6.148h-56.185c-47.656,0-86.287,38.635-86.287,86.287v41.78h49.21  c5.785-26.784,29.6-46.86,58.116-46.86s52.332,20.074,58.118,46.86h149.178c7.69-35.607,45.63-56.19,79.846-42.745  c0-0.002,0-0.003,0-0.004c18.866,7.569,32.21,23.513,36.387,42.749h22.902v-85.708C477.839,169.23,408.42,101.826,322.777,101.826z"/>
<g>
	<path style="fill:#D33333;" d="M136.146,210.031H110.37c-47.656,0-86.287,38.635-86.287,86.287v41.78H49.86v-41.78   C49.86,248.666,88.491,210.031,136.146,210.031z"/>
	<path style="fill:#D33333;" d="M201.723,203.882l0.004,0.001c19.459-55.564,71.42-96.532,133.899-101.54   c-72.756-5.785-137.334,37.744-159.676,101.54l-0.004-0.001c-0.572,1.937-3.136,6.148-9.392,6.148h25.777   C197.803,210.031,200.903,206.657,201.723,203.882z"/>
</g>
<path style="fill:#C8E5FC;" d="M433.514,201.911c-20.094-43.018-63.28-70.813-110.018-70.813  c-46.741,0-89.925,27.796-110.019,70.813c-1.545,3.312,0.873,7.118,4.532,7.118c225.838,0,213.047,1.053,215.192-2.315  C434.12,205.272,434.238,203.461,433.514,201.911z"/>
<path style="fill:#8FC8F2;" d="M238.484,201.911c18.288-39.151,55.703-65.684,97.514-70.14c-4.13-0.439-8.301-0.673-12.502-0.673  c-46.741,0-89.925,27.796-110.019,70.813c-1.545,3.312,0.873,7.118,4.532,7.118h25.007  C239.361,209.03,236.936,205.227,238.484,201.911z"/>
<path style="fill:#559DD8;" d="M335.998,131.771c-4.188-0.444-8.798-0.673-12.502-0.673v2.697  C327.609,132.907,331.78,132.221,335.998,131.771z"/>
<path style="fill:#FF8C01;" d="M172.49,242.997c0,5.077-4.116,9.195-9.195,9.195h-24.601c-5.077,0-9.195-4.117-9.195-9.195l0,0  c0-5.079,4.118-9.196,9.195-9.196h24.601C168.374,233.8,172.49,237.918,172.49,242.997L172.49,242.997z"/>
<path style="fill:#6EA5F4;" d="M24.083,296.317v6.609c42.389,8.26,64.394-47.877,29.043-71.165  C35.313,247.568,24.083,270.631,24.083,296.317z"/>
<path style="fill:#6387EA;" d="M49.86,299.144c0-19.263,4.194-36.462,16.248-53.195c-3.09-5.732-7.558-10.611-12.972-14.181  c-19.114,17.019-29.054,40.522-29.054,64.55v6.609C32.706,304.607,41.789,303.402,49.86,299.144z"/>
<circle style="fill:#777984;" cx="131.406" cy="350.466" r="59.466"/>
<path style="fill:#2E313A;" d="M95.106,350.469c0-28.878,20.589-52.941,47.885-58.331c-36.975-7.297-71.049,21.023-71.049,58.331  c0,37.372,34.132,65.619,71.049,58.334C115.694,403.413,95.106,379.349,95.106,350.469z"/>
<path style="fill:#C8CBD6;" d="M167.714,350.705c0,20.051-16.254,36.306-36.305,36.306s-36.303-16.254-36.303-36.306  c0-20.048,16.252-36.304,36.303-36.304S167.714,330.656,167.714,350.705z"/>
<path style="fill:#A9ADBF;" d="M142.742,316.215c-23.522-7.725-47.636,9.85-47.636,34.489c0,24.659,24.129,42.211,47.636,34.491  C109.565,374.299,109.53,327.124,142.742,316.215z"/>
<circle style="fill:#61626D;" cx="131.406" cy="350.706" r="13.637"/>
<path style="fill:#2E313A;" d="M139.286,339.589c-9.001-6.391-21.514,0.06-21.514,11.117c0,11.049,12.505,17.514,21.514,11.118  C131.612,356.377,131.606,345.04,139.286,339.589z"/>
<circle style="fill:#777984;" cx="396.818" cy="350.466" r="59.466"/>
<path style="fill:#2E313A;" d="M360.515,350.469c0-28.878,20.588-52.941,47.886-58.331c-36.973-7.295-71.05,21.018-71.05,58.331  c0,32.845,26.624,59.47,59.467,59.47c3.964,0,7.835-0.396,11.583-1.136C381.102,403.413,360.515,379.349,360.515,350.469z"/>
<path style="fill:#C8CBD6;" d="M433.123,350.705c0,20.051-16.254,36.306-36.305,36.306s-36.303-16.254-36.303-36.306  c0-20.048,16.252-36.304,36.303-36.304S433.123,330.656,433.123,350.705z"/>
<path style="fill:#A9ADBF;" d="M408.151,316.215c-23.527-7.724-47.636,9.853-47.636,34.489c0,20.051,16.252,36.306,36.303,36.306  c3.959,0,7.766-0.643,11.333-1.813C374.977,374.3,374.937,327.124,408.151,316.215z"/>
<circle style="fill:#61626D;" cx="396.818" cy="350.706" r="13.637"/>
<path style="fill:#2E313A;" d="M404.695,339.589c-8.979-6.378-21.514,0.039-21.514,11.117c0,11.05,12.508,17.514,21.514,11.118  C397.008,356.37,397.028,345.029,404.695,339.589z"/>
<path d="M396.702,306.899c-24.155,0-43.807,19.651-43.807,43.806c0,24.156,19.651,43.808,43.807,43.808s43.807-19.651,43.807-43.808  C440.509,326.55,420.856,306.899,396.702,306.899z M396.702,379.509c-15.882,0-28.803-12.922-28.803-28.804  c0-15.881,12.921-28.802,28.803-28.802s28.803,12.921,28.803,28.802C425.505,366.587,412.584,379.509,396.702,379.509z"/>
<path d="M396.702,329.653c-11.608,0-21.053,9.445-21.053,21.053c0,11.609,9.444,21.053,21.053,21.053s21.053-9.444,21.053-21.053  C417.754,339.098,408.31,329.653,396.702,329.653z M396.702,356.754c-3.335,0-6.049-2.714-6.049-6.049  c0-3.335,2.714-6.049,6.049-6.049s6.049,2.714,6.049,6.049S400.037,356.754,396.702,356.754z"/>
<path d="M485.224,330.606v-11.694c15.475-4.306,26.777-18.587,26.777-35.192c0-16.624-11.326-30.919-26.827-35.209  c-2.125-85.373-74.209-154.188-162.513-154.188c-38.294,0-75.48,13.195-104.708,37.156c-3.204,2.627-3.672,7.354-1.045,10.558  c2.627,3.204,7.355,3.673,10.558,1.045c26.552-21.767,60.36-33.754,95.196-33.754c77.189,0,147.425,59.085,147.425,145.447  c0,7.821,0.135,67.99,0.135,75.82h-9.637c-19.499-61.959-107.953-62.824-127.764,0H195.173c-19.716-61.967-107.987-62.597-127.762,0  H31.468v-19.437c41.169,0,62.209-49.734,33.448-79.214c12.831-9.063,28.467-14.411,45.336-14.411h56.185  c8.359,0,14.416-4.977,16.475-11.17c6.177-17.635,15.735-33.736,28.411-47.857c2.768-3.083,2.513-7.826-0.571-10.594  c-3.084-2.769-7.825-2.513-10.594,0.571c-15.004,16.713-25.996,36.413-31.459,53.061c-0.304,0.671-1.024,0.983-2.263,0.983h-56.185  c-23.658,0-45.295,8.809-61.813,23.314c-0.135,0.105-0.28,0.192-0.41,0.307c-19.917,17.673-30.842,42.445-31.533,67.681  c-0.046,1.755-0.033-0.658-0.033,37.078C7.127,332.534,0,340.676,0,350.47c0,10.959,8.915,19.875,19.874,19.875h47.391  c8.413,27.374,33.93,47.332,64.025,47.332c30.096,0,55.614-19.957,64.027-47.332h24.673c4.144,0,7.502-3.358,7.502-7.502  s-3.358-7.502-7.502-7.502h-21.889c0.224-3.242,0.203-6.638-0.036-9.742h131.86c-0.245,3.191-0.255,6.562-0.036,9.742h-84.892  c-4.144,0-7.502,3.358-7.502,7.502s3.358,7.502,7.502,7.502h87.676c8.413,27.374,33.931,47.332,64.027,47.332  s55.614-19.957,64.027-47.332h24.276c10.959,0,19.874-8.916,19.874-19.875C504.879,339.585,496.081,330.725,485.224,330.606z   M31.472,296.154c0.041-19.384,7.252-39.044,22.044-54.416C73.828,261.367,59.974,296.154,31.472,296.154z M64.483,355.341H19.874  c-2.686,0-4.87-2.186-4.87-4.871s2.186-4.87,4.87-4.87c4.756,0,39.76,0,44.644,0C64.259,348.979,64.272,352.288,64.483,355.341z   M131.292,402.673c-40.102,0-64.67-43.474-45.129-77.681c20.942-36.476,73.117-34.175,91.563,2.421  C194.982,361.574,170.098,402.673,131.292,402.673z M485.224,302.889v-38.339C500.859,272.559,500.915,294.852,485.224,302.889z   M396.702,402.673c-38.689,0-64.089-41.192-46.151-75.812c10.754-20.652,34.176-32.073,57.468-26.866  c27.492,6.135,45.298,33.357,39.582,61.22C442.726,384.849,421.758,402.673,396.702,402.673z M485.005,355.341h-21.492  c0.224-3.237,0.203-6.631-0.036-9.742c13.237,0,9.295,0,21.528,0c2.686,0,4.87,2.185,4.87,4.87  C489.875,353.156,487.69,355.341,485.005,355.341z"/>
<path d="M131.292,306.899c-24.154,0-43.805,19.651-43.805,43.806c0,24.156,19.651,43.808,43.805,43.808  c24.155,0,43.807-19.651,43.807-43.808C175.099,326.55,155.446,306.899,131.292,306.899z M131.292,379.509  c-15.881,0-28.801-12.922-28.801-28.804c0-15.881,12.92-28.802,28.801-28.802c15.882,0,28.803,12.921,28.803,28.802  C160.094,366.587,147.174,379.509,131.292,379.509z"/>
<path d="M131.292,329.569c-11.655,0-21.139,9.482-21.139,21.138c0,11.655,9.483,21.139,21.139,21.139s21.139-9.483,21.139-21.139  C152.43,339.051,142.947,329.569,131.292,329.569z M131.292,356.84c-3.383,0-6.135-2.752-6.135-6.135  c0-3.382,2.752-6.134,6.135-6.134s6.135,2.752,6.135,6.134C137.426,354.089,134.675,356.84,131.292,356.84z"/>
<path d="M163.177,226.298h-24.601c-9.208,0-16.698,7.491-16.698,16.699c0,9.206,7.49,16.697,16.698,16.697h24.601  c9.208,0,16.698-7.49,16.698-16.697C179.875,233.79,172.385,226.298,163.177,226.298z M163.177,244.69h-24.601  c-2.238,0-2.239-3.388,0-3.388h24.601c0.934,0,1.693,0.76,1.693,1.694C164.871,243.931,164.111,244.69,163.177,244.69z"/>
<path d="M444.926,207.373c-30.33-80.085-126.873-110.169-196.103-60.957c-21.399,15.21-37.648,36.288-46.991,60.957  c-1.857,4.903,1.772,10.159,7.016,10.159h175.855c4.144,0,7.502-3.358,7.502-7.502s-3.358-7.502-7.502-7.502h-53.822v-64.665  c40.249,2.734,77.178,27.249,95.581,64.665h-17.087c-4.144,0-7.502,3.358-7.502,7.502s3.358,7.502,7.502,7.502  c31.124,0,29.021,0.077,30.208-0.196C444.077,216.303,446.51,211.557,444.926,207.373z M220.275,202.529  c18.2-36.985,54.911-61.914,95.602-64.665v64.665H220.275z"/>
<g>
</g>
<g>
</g>
<g>
</g>
<g>
</g>
<g>
</g>
<g>
</g>
<g>
</g>
<g>
</g>
<g>
</g>
<g>
</g>
<g>
</g>
<g>
</g>
<g>
</g>
<g>
</g>
<g>
</g>
</svg>
